<svg width="19" height="21" viewBox="0 0 19 21" fill="none" xmlns="http://www.w3.org/2000/svg">
<path d="M16.2342 12.3911V12.4935L16.2744 12.5876L17.6575 15.8237L17.6575 15.8238C17.7 15.9232 17.7222 16.0311 17.7222 16.1407C17.7222 16.5832 17.3745 16.9224 16.9694 16.9224H16.9692L12.224 16.9239L11.7242 16.9241V17.4239C11.7242 18.8574 10.5913 20 9.21753 20C7.89484 20 6.79568 18.9411 6.71555 17.5826L6.7102 17.4064L6.69549 16.9215L6.21034 16.9216L1.47527 16.9224C1.47524 16.9224 1.47522 16.9224 1.4752 16.9224C1.37394 16.9224 1.27323 16.901 1.17924 16.8594C0.800458 16.691 0.614639 16.2301 0.786441 15.8254L0.326528 15.6302L0.786442 15.8254L2.16114 12.5874L2.2009 12.4938V12.3921V8.19018C2.2009 8.19016 2.2009 8.19013 2.2009 8.19011C2.2015 4.19549 5.34705 1 9.21753 1C12.995 1 16.0973 4.04929 16.2301 7.94547L16.2342 8.19431V12.3911ZM11.22 17.4432L11.2426 16.9211L10.7201 16.9216L7.71381 16.9239L7.2142 16.9243V17.4239C7.2142 18.5386 8.10045 19.462 9.21753 19.462C10.2688 19.462 11.1161 18.6437 11.2118 17.6184L11.2129 17.606L11.2135 17.5936L11.22 17.4432ZM2.70423 8.19014V8.19021V12.6099L1.39702 15.6889L1.10179 16.3843H1.85726H16.5863H17.3438L17.0461 15.6878L15.7308 12.6103L15.7309 8.20341H15.731L15.7309 8.19537L15.7272 7.96446L15.7272 7.96446L15.727 7.9557C15.6069 4.38067 12.7457 1.53804 9.21753 1.53804C5.60341 1.53804 2.70474 4.51455 2.70423 8.19014Z" fill="#1EBD73" stroke="#1EBD73"/>
</svg>
