<svg width="21" height="15" viewBox="0 0 21 15" fill="none" xmlns="http://www.w3.org/2000/svg">
<path d="M19.4749 13.9997C19.6131 13.9997 19.7249 14.1116 19.7249 14.2497C19.7249 14.3717 19.6372 14.4738 19.5217 14.4954L19.458 14.4997H0.974981C0.836912 14.4997 0.724981 14.3878 0.724981 14.2497C0.724981 14.1278 0.812615 14.0256 0.928172 14.0039L0.991671 13.9997H19.4749ZM19.4749 7.5027C19.6131 7.5027 19.7249 7.6146 19.7249 7.7527C19.7249 7.87461 19.6373 7.97677 19.5218 7.99846L19.4583 8.0027H0.974981C0.836912 8.0027 0.724981 7.89077 0.724981 7.7527C0.724981 7.63083 0.812616 7.52863 0.928177 7.50694L0.991664 7.5027H19.4749ZM19.4741 1.00293C19.6122 1.00293 19.7241 1.11487 19.7241 1.25293C19.7241 1.37482 19.6364 1.47702 19.5209 1.49865L19.4573 1.50293H0.974121C0.836048 1.50293 0.724121 1.391 0.724121 1.25293C0.724121 1.13102 0.811802 1.02883 0.927372 1.00721L0.990929 1.00293H19.4741Z" fill="#1EBD73" stroke="#1EBD73"/>
</svg>
