<svg width="21" height="19" viewBox="0 0 21 19" fill="none" xmlns="http://www.w3.org/2000/svg">
<path d="M11.2215 15.0004C11.2215 14.4489 10.7744 14.0018 10.2228 14.0018C9.67127 14.0018 9.22417 14.4489 9.22417 15.0004C9.22417 15.552 9.67127 15.9991 10.2228 15.9991C10.7744 15.9991 11.2215 15.552 11.2215 15.0004ZM10.9623 7.14719C10.9123 6.78115 10.5983 6.49925 10.2186 6.49955C9.80437 6.49988 9.46887 6.83594 9.46917 7.25015L9.47277 11.7517L9.47967 11.8535C9.52967 12.2195 9.84367 12.5014 10.2234 12.5011C10.6376 12.5008 10.9731 12.1648 10.9728 11.7505L10.9692 7.24895L10.9623 7.14719ZM12.1915 1.65937C11.3352 0.111571 9.10997 0.111591 8.25377 1.65942L0.508506 15.6609C-0.321054 17.1605 0.763566 19 2.47735 19H17.9684C19.6822 19 20.7668 17.1605 19.9372 15.6608L12.1915 1.65937ZM9.56637 2.3855C9.85177 1.86956 10.5935 1.86954 10.8789 2.38548L18.6247 16.3869C18.9012 16.8868 18.5397 17.5 17.9684 17.5H2.47735C1.90609 17.5 1.54455 16.8868 1.82107 16.387L9.56637 2.3855Z" fill="white"/>
</svg>
